HIERARCHY
ROOT Hip
{
    OFFSET 0.0 0.0 0.0
    CHANNELS 6 Xposition Yposition Zposition Zrotation Xrotation Yrotation
    JOINT RightHip
    {
        OFFSET -6.7594507443948135 0.0 0.0
        CHANNELS 3 Zrotation Xrotation Yrotation
        JOINT RightKnee
        {
            OFFSET 0.0 0.0 -23.21589475084994
            CHANNELS 3 Zrotation Xrotation Yrotation
            JOINT RightAnkle
            {
                OFFSET 0.0 0.0 -29.488285203049124
                CHANNELS 3 Zrotation Xrotation Yrotation
                End Site
                {
                    OFFSET 0.0 -11.79531408121965 0.0
                }
            }
        }
    }
    JOINT LeftHip
    {
        OFFSET 6.7594507443948135 0.0 0.0
        CHANNELS 3 Zrotation Xrotation Yrotation
        JOINT LeftKnee
        {
            OFFSET 0.0 0.0 -23.21589475084994
            CHANNELS 3 Zrotation Xrotation Yrotation
            JOINT LeftAnkle
            {
                OFFSET 0.0 0.0 -29.488285203049124
                CHANNELS 3 Zrotation Xrotation Yrotation
                End Site
                {
                    OFFSET 0.0 -11.79531408121965 0.0
                }
            }
        }
    }
    JOINT Spine
    {
        OFFSET 0.0 0.0 19.316425965024855
        CHANNELS 3 Zrotation Xrotation Yrotation
        JOINT Thorax
        {
            OFFSET 0.0 0.0 22.150291245062046
            CHANNELS 3 Zrotation Xrotation Yrotation
            JOINT Neck
            {
                OFFSET 0.0 0.0 2.8115773475813923
                CHANNELS 3 Zrotation Xrotation Yrotation
                JOINT Head
                {
                    OFFSET 0.0 0.0 8.365010248012371
                    CHANNELS 3 Zrotation Xrotation Yrotation
                    End Site
                    {
                        OFFSET -3.346004099204948 0.0 0.0
                    }
                }
            }
            JOINT LeftShoulder
            {
                OFFSET 12.333154039147121 0.0 0.0
                CHANNELS 3 Zrotation Xrotation Yrotation
                JOINT LeftElbow
                {
                    OFFSET 22.28463777827716 0.0 0.0
                    CHANNELS 3 Zrotation Xrotation Yrotation
                    JOINT LeftWrist
                    {
                        OFFSET 14.662686346712308 0.0 0.0
                        CHANNELS 3 Zrotation Xrotation Yrotation
                        End Site
                        {
                            OFFSET 5.865074538684924 0.0 0.0
                        }
                    }
                }
            }
            JOINT RightShoulder
            {
                OFFSET -12.333154039147121 0.0 0.0
                CHANNELS 3 Zrotation Xrotation Yrotation
                JOINT RightElbow
                {
                    OFFSET -22.28463777827716 0.0 0.0
                    CHANNELS 3 Zrotation Xrotation Yrotation
                    JOINT RightWrist
                    {
                        OFFSET -14.662686346712308 0.0 0.0
                        CHANNELS 3 Zrotation Xrotation Yrotation
                        End Site
                        {
                            OFFSET -5.865074538684924 0.0 0.0
                        }
                    }
                }
            }
            JOINT Nose
            {
                OFFSET 0.0 0.0 7.981031305081574
                CHANNELS 3 Zrotation Xrotation Yrotation
                End Site
                {
                    OFFSET -3.1924125220326296 0.0 0.0
                }
            }
        }
    }
}
MOTION
Frames: 4
Frame Time: 0.03333333333333333
16.725729253397848 41.774263180141425 7.066891431164017 -23.34513671358081 -1.1933501692152721 2.339801642021153 -1.329186185815042 -9.706679277921966 10.158353347296293 5.590663536451274 20.453143886313626 -14.21426200974956 0.0 0.0 0.0 2.595652724149088 -8.269402000049984 -10.034534629456584 -6.244282630631962 19.755491905622765 14.95890071391044 0.0 0.0 0.0 1.009154745669136e-17 5.151850956224818 -2.243129566237285e-16 -2.017320359966355 0.03868002369254168 -1.8362187577607776 0.8780361745986801 -3.6094146448367193 -14.792614095946197 -3.180554681463516e-15 -3.975693351829395e-16 1.9878466759146975e-16 -76.70449274248847 53.05859721257663 1.5399822179000107 1.3961313342959222e-14 -7.61445544895996e-15 -130.95561357589088 2.3854160110976376e-15 -1.3241718894150476e-31 -6.3611093629270335e-15 76.9589914443719 43.46565064098635 1.8198228864266328 -8.27687228204311e-15 -3.5243169382140436e-15 136.12889943753817 0.0 0.0 -1.5902773407317584e-15 0.0 0.0 0.0
16.691530780520626 41.6888489070363 7.08704351015603 -22.276438451117095 -1.0943978709449296 2.10467960223386 -1.4747963723257211 -9.255826568818662 10.103453727019343 5.301221075698909 19.946897883495584 -13.992403698462606 0.0 0.0 3.975693351829396e-16 1.596914539272239 -8.649750837409599 -10.84347646933124 -5.858268978640398 19.71765219890746 15.569985468563393 3.1805546814635168e-15 -1.5902773407317584e-15 4.4139062980501586e-32 3.188777594498418e-15 5.057977047765218 -1.1596918604740853e-16 -2.4185707418086744 0.008666383832445177 -1.8333413717858695 0.2817023718497405 -3.5215908897422397 -10.391625973724393 0.0 0.0 2.4848083448933725e-16 -77.22806705258843 52.72869119108964 1.392755594308413 1.4215620630240422e-14 -4.844499279313856e-16 -130.77351876961237 0.0 0.0 0.0 79.1251667661474 41.684969478340754 0.7917321585981989 9.50232245302454e-15 -1.0584159373060081e-14 136.96427804701807 -1.5902773407317584e-15 0.0 0.0 0.0 0.0 0.0
16.692009065706415 41.69004347445537 7.086761671815488 -22.251683293490416 -1.1062414752079806 2.0232188341983015 -1.4964483596869624 -9.241606158390043 10.144638068749636 5.299076277201738 19.939060761702375 -13.997785851034383 0.0 0.0 -3.975693351829396e-16 1.5687430581657 -8.700291702700895 -10.901057422293709 -5.904932279393539 19.799759715660286 15.62957190791807 0.0 0.0 0.0 -3.207452670450794e-15 5.0528553159205245 5.394788447051733e-16 -2.448825749075715 0.008285632052947196 -1.7744667445074933 0.16590261926814331 -3.608730994985598 -10.835775843437048 0.0 0.0 -9.93923337957349e-17 -78.52252198824692 51.75806945246708 1.8984677004471535 -2.3424551070500356e-15 1.2902855554554836e-14 -131.34807090842833 0.0 0.0 0.0 79.15168306887078 39.75181080666145 0.6870554773147968 0.0 0.0 138.17027915121045 -3.1805546814635168e-15 0.0 0.0 0.0 0.0 -1.987846675914698e-16
16.690059133795117 41.685173314977604 7.087910705050003 -22.294615700151283 -1.112896834073262 2.3027638956494823 -1.5084894116665186 -9.384599469197745 10.18186812227931 5.466940541668596 20.098974799081052 -14.144107284314096 0.0 0.0 0.0 1.5750208504847103 -8.55003537058281 -10.757872044034892 -5.717105551848454 19.64297565546093 15.410796115556149 0.0 0.0 0.0 -9.916622020066529e-18 5.063191532721349 2.2428967445667506e-16 -2.3993723545410375 0.01531338268187691 -1.7927623040912508 0.44976385517630657 -3.5080794749660487 2.1454600296872988 2.155227684594804e-35 -9.93923337957349e-17 2.4848083448933725e-17 -76.18646108220523 52.67028602494177 1.1354383769731458 -0.0 0.0 -131.96941569338878 2.3854160110976376e-15 0.0 0.0 79.14103125540615 41.46113549453494 0.7613903388607768 -6.252371775731934e-16 7.0843996838601494e-15 136.95709637373045 -1.5902773407317584e-15 0.0 0.0 0.0 0.0 -9.93923337957349e-17
